<svg xmlns="http://www.w3.org/2000/svg">
  <defs>
    <svg id="chevron-up" viewBox="0 0 24 24"><path d="m12 6.586-8.707 8.707 1.414 1.414L12 9.414l7.293 7.293 1.414-1.414L12 6.586z"/></svg>
    <svg id="arrow-down" viewBox="0 -960 960 960"><path d="M440-800v487L216-537l-56 57 320 320 320-320-56-57-224 224v-487h-80Z"/></svg>
    <svg id="arrow-up" viewBox="0 -960 960 960"><path d="M440-160v-487L216-423l-56-57 320-320 320 320-56 57-224-224v487h-80Z"/></svg>
    <svg id="arrow-back" viewBox="0 -960 960 960"><path d="m313-440 224 224-57 56-320-320 320-320 57 56-224 224h487v80H313Z"/></svg>
    <svg id="arrow-forward" viewBox="0 -960 960 960"><path d="M647-440H160v-80h487L423-744l57-56 320 320-320 320-57-56 224-224Z"/></svg>
    <svg id="refresh-right" viewBox="0 0 24 24"><path d="M15 10h6V4h-2v2.339a9 9 0 1 0 1.716 7.91l-1.936-.5A7.028 7.028 0 1 1 17.726 8H15z"/></svg>
    <svg id="new-tab" viewBox="0 -960 960 960"><path d="M200-120q-33 0-56.5-23.5T120-200v-560q0-33 23.5-56.5T200-840h280v80H200v560h560v-280h80v280q0 33-23.5 56.5T760-120H200Zm188-212-56-56 372-372H560v-80h280v280h-80v-144L388-332Z"/></svg>
    <svg id="close" viewBox="0 -960 960 960"><path d="m256-200-56-56 224-224-224-224 56-56 224 224 224-224 56 56-224 224 224 224-56 56-224-224-224 224Z"/></svg>
    <svg id="download" viewBox="0 -960 960 960"><path d="M480-320 280-520l56-58 104 104v-326h80v326l104-104 56 58-200 200ZM240-160q-33 0-56.5-23.5T160-240v-120h80v120h480v-120h80v120q0 33-23.5 56.5T720-160H240Z"/></svg>
    <svg id="info" viewBox="0 -960 960 960"><path d="M440-280h80v-240h-80v240Zm40-320q17 0 28.5-11.5T520-640q0-17-11.5-28.5T480-680q-17 0-28.5 11.5T440-640q0 17 11.5 28.5T480-600Zm0 520q-83 0-156-31.5T197-197q-54-54-85.5-127T80-480q0-83 31.5-156T197-763q54-54 127-85.5T480-880q83 0 156 31.5T763-763q54 54 85.5 127T880-480q0 83-31.5 156T763-197q-54 54-127 85.5T480-80Zm0-80q134 0 227-93t93-227q0-134-93-227t-227-93q-134 0-227 93t-93 227q0 134 93 227t227 93Zm0-320Z"/></svg>
    <svg id="dot-box" viewBox="0 0 134 44" fill="none"><circle cx="4" cy="4" r="4" fill="#636363"/><circle cx="58" cy="4" r="4" fill="#636363"/><circle cx="76" cy="4" r="4" fill="#636363"/><circle cx="94" cy="4" r="4" fill="#636363"/><circle cx="112" cy="4" r="4" fill="#636363"/><circle cx="130" cy="4" r="4" fill="#636363"/><circle cx="40" cy="4" r="4" fill="#636363"/><circle cx="22" cy="4" r="4" fill="#636363"/><circle cx="4" cy="40" r="4" fill="#636363"/><circle cx="58" cy="40" r="4" fill="#636363"/><circle cx="76" cy="40" r="4" fill="#636363"/><circle cx="94" cy="40" r="4" fill="#636363"/><circle cx="112" cy="40" r="4" fill="#636363"/><circle cx="130" cy="40" r="4" fill="#636363"/><circle cx="40" cy="40" r="4" fill="#636363"/><circle cx="22" cy="40" r="4" fill="#636363"/><circle cx="4" cy="22" r="4" fill="#636363"/><circle cx="58" cy="22" r="4" fill="#636363"/><circle cx="76" cy="22" r="4" fill="#636363"/><circle cx="94" cy="22" r="4" fill="#636363"/><circle cx="112" cy="22" r="4" fill="#636363"/><circle cx="130" cy="22" r="4" fill="#636363"/><circle cx="40" cy="22" r="4" fill="#636363"/><circle cx="22" cy="22" r="4" fill="#636363"/></svg>
    <svg id="bg-circle" viewBox="0 0 19 19" fill="none"><circle cx="9.5" cy="9.5" r="8" stroke="#547267" stroke-width="3"/></svg>
    <svg id="linkedin" viewBox="0 0 48 48" fill="none"><path id="Vector" d="M12 19H17V36H12V19ZM14.485 17H14.457C12.965 17 12 15.888 12 14.499C12 13.08 12.995 12 14.514 12C16.035 12 16.972 13.08 17 14.499C17 15.887 16.035 17 14.485 17ZM36 36H31V26.901C31 24.703 29.775 23.203 27.808 23.203C26.307 23.203 25.495 24.215 25.101 25.193C24.957 25.543 25 26.511 25 27V36H20V19H25V21.616C25.721 20.5 26.85 19 29.738 19C33.316 19 35.999 21.25 35.999 26.274L36 36Z" fill="white"/></svg>
    <svg id="instagram" viewBox="0 0 48 48" fill="none"><path d="M24 31C20.141 31 17 27.86 17 24C17 20.14 20.141 17 24 17C27.859 17 31 20.14 31 24C31 27.86 27.859 31 24 31ZM24 19C21.243 19 19 21.243 19 24C19 26.757 21.243 29 24 29C26.757 29 29 26.757 29 24C29 21.243 26.757 19 24 19Z" fill="white"/><path d="M31.5 18C32.3284 18 33 17.3284 33 16.5C33 15.6716 32.3284 15 31.5 15C30.6716 15 30 15.6716 30 16.5C30 17.3284 30.6716 18 31.5 18Z" fill="white"/><path d="M30 37H18C14.141 37 11 33.86 11 30V18C11 14.14 14.141 11 18 11H30C33.859 11 37 14.14 37 18V30C37 33.86 33.859 37 30 37ZM18 13C15.243 13 13 15.243 13 18V30C13 32.757 15.243 35 18 35H30C32.757 35 35 32.757 35 30V18C35 15.243 32.757 13 30 13H18Z" fill="white"/></svg>
    <svg id="github" viewBox="0 0 48 48" fill="none"><path fill-rule="evenodd" clip-rule="evenodd" d="M24.0099 12C17.3687 12 12 17.521 12 24.3512C12 29.811 15.4399 34.4326 20.2121 36.0683C20.8087 36.1913 21.0272 35.8025 21.0272 35.4755C21.0272 35.1892 21.0076 34.2077 21.0076 33.1851C17.6667 33.9214 16.971 31.7127 16.971 31.7127C16.4341 30.2813 15.6386 29.9134 15.6386 29.9134C14.5451 29.1568 15.7182 29.1568 15.7182 29.1568C16.9312 29.2386 17.5676 30.4246 17.5676 30.4246C18.6412 32.3057 20.3711 31.7742 21.0671 31.447C21.1664 30.6494 21.4847 30.0973 21.8228 29.7907C19.1582 29.5043 16.3547 28.441 16.3547 23.6967C16.3547 22.3471 16.8316 21.2429 17.5873 20.3841C17.4681 20.0775 17.0504 18.8094 17.7068 17.1122C17.7068 17.1122 18.7208 16.785 21.0073 18.38C21.9863 18.1097 22.9958 17.9721 24.0099 17.971C25.024 17.971 26.0577 18.1143 27.0123 18.38C29.299 16.785 30.3131 17.1122 30.3131 17.1122C30.9695 18.8094 30.5515 20.0775 30.4323 20.3841C31.2079 21.2429 31.6652 22.3471 31.6652 23.6967C31.6652 28.441 28.8617 29.4838 26.1772 29.7907C26.6148 30.1792 26.9924 30.9152 26.9924 32.0809C26.9924 33.7372 26.9727 35.0665 26.9727 35.4753C26.9727 35.8025 27.1915 36.1913 27.7879 36.0686C32.56 34.4323 35.9999 29.811 35.9999 24.3512C36.0196 17.521 30.6312 12 24.0099 12Z" fill="white"/></svg>
    <svg id="mail" viewBox="0 0 40 40" fill="none"><mask id="mask0_597_159" style="mask-type:alpha" maskUnits="userSpaceOnUse" x="0" y="0" width="40" height="40"><rect width="40" height="40" fill="white"/></mask><g mask="url(#mask0_597_159)"><path d="M6.66732 33.3385C5.75065 33.3385 4.96593 33.0121 4.31315 32.3594C3.66037 31.7066 3.33398 30.9219 3.33398 30.0052V10.0052C3.33398 9.08854 3.66037 8.30382 4.31315 7.65104C4.96593 6.99826 5.75065 6.67188 6.66732 6.67188H33.334C34.2507 6.67188 35.0354 6.99826 35.6882 7.65104C36.3409 8.30382 36.6673 9.08854 36.6673 10.0052V30.0052C36.6673 30.9219 36.3409 31.7066 35.6882 32.3594C35.0354 33.0121 34.2507 33.3385 33.334 33.3385H6.66732ZM20.0007 21.6719L6.66732 13.3385V30.0052H33.334V13.3385L20.0007 21.6719ZM20.0007 18.3385L33.334 10.0052H6.66732L20.0007 18.3385ZM6.66732 13.3385V10.0052V30.0052V13.3385Z" fill="white"/></g></svg>
    <svg id="call" viewBox="0 0 40 40" fill="none"><g id="call"><mask id="mask0_572_135" style="mask-type:alpha" maskUnits="userSpaceOnUse" x="0" y="0" width="40" height="40"><rect id="Bounding box" width="40" height="40" fill="#D9D9D9"/></mask><g mask="url(#mask0_572_135)"><path id="call_2" d="M33.1667 35C29.8611 35 26.5278 34.2292 23.1667 32.6875C19.8056 31.1458 16.7083 28.9583 13.875 26.125C11.0417 23.2917 8.85417 20.1944 7.3125 16.8333C5.77083 13.4722 5 10.1389 5 6.83333C5 6.30953 5.1746 5.87301 5.52379 5.52379C5.87301 5.1746 6.30953 5 6.83333 5H12.9722C13.3611 5 13.6991 5.13657 13.9861 5.40971C14.2731 5.68288 14.463 6.01853 14.5555 6.41667L15.6647 11.8511C15.7216 12.2652 15.713 12.6296 15.6389 12.9444C15.5648 13.2593 15.4145 13.5299 15.1881 13.7563L11.0694 17.9167C11.7361 19.0741 12.4652 20.1644 13.2569 21.1875C14.0486 22.2106 14.9213 23.1852 15.875 24.1111C16.8472 25.1019 17.8704 26.0116 18.9445 26.8403C20.0185 27.669 21.1482 28.4074 22.3333 29.0556L26.2778 25.0278C26.5463 24.7408 26.8695 24.5394 27.2473 24.4236C27.6251 24.3079 27.9963 24.2778 28.3611 24.3333L33.5833 25.4445C33.9908 25.5556 34.3287 25.7713 34.5972 26.0915C34.8657 26.4118 35 26.7702 35 27.1667V33.1667C35 33.6905 34.8254 34.127 34.4762 34.4762C34.127 34.8254 33.6905 35 33.1667 35ZM9.70833 15.3333L12.875 12.1389L12 7.77775H7.79167C7.875 8.93517 8.06481 10.1296 8.36108 11.3611C8.65739 12.5926 9.10647 13.9167 9.70833 15.3333ZM24.9305 30.3889C26.0509 30.8982 27.2431 31.3102 28.507 31.625C29.7708 31.9398 31.0093 32.1297 32.2222 32.1945V28L28.0556 27.1528L24.9305 30.3889Z" fill="white"/></g></g></svg>
    <svg id="location" viewBox="0 0 40 40" fill="none"><g id="location_on"><mask id="mask0_572_138" style="mask-type:alpha" maskUnits="userSpaceOnUse" x="0" y="0" width="40" height="40"><rect id="Bounding box" width="40" height="40" fill="#D9D9D9"/></mask><g mask="url(#mask0_572_138)"><path id="location_on_2" d="M20 19.9997C20.9167 19.9997 21.7014 19.6733 22.3542 19.0205C23.007 18.3677 23.3334 17.583 23.3334 16.6663C23.3334 15.7497 23.007 14.965 22.3542 14.3122C21.7014 13.6594 20.9167 13.333 20 13.333C19.0834 13.333 18.2986 13.6594 17.6459 14.3122C16.9931 14.965 16.6667 15.7497 16.6667 16.6663C16.6667 17.583 16.9931 18.3677 17.6459 19.0205C18.2986 19.6733 19.0834 19.9997 20 19.9997ZM20 32.2497C23.3889 29.1386 25.9028 26.3122 27.5417 23.7705C29.1806 21.2288 30 18.9719 30 16.9997C30 13.9719 29.0347 11.4927 27.1042 9.56217C25.1736 7.63162 22.8056 6.66634 20 6.66634C17.1945 6.66634 14.8264 7.63162 12.8959 9.56217C10.9653 11.4927 10 13.9719 10 16.9997C10 18.9719 10.8195 21.2288 12.4584 23.7705C14.0972 26.3122 16.6111 29.1386 20 32.2497ZM20 36.6663C15.5278 32.8608 12.1875 29.3261 9.97919 26.0622C7.77085 22.7983 6.66669 19.7775 6.66669 16.9997C6.66669 12.833 8.00696 9.51356 10.6875 7.04134C13.3681 4.56912 16.4722 3.33301 20 3.33301C23.5278 3.33301 26.632 4.56912 29.3125 7.04134C31.9931 9.51356 33.3334 12.833 33.3334 16.9997C33.3334 19.7775 32.2292 22.7983 30.0209 26.0622C27.8125 29.3261 24.4722 32.8608 20 36.6663Z" fill="white"/></g></g></svg>
    <svg id="underline" viewBox="0 0 1418 125" fill="#000"><path d="M1412.29 72.17c-11.04-5.78-20.07-14.33-85.46-25.24-22.37-3.63-44.69-7.56-67.07-11.04-167.11-22.06-181.65-21.24-304.94-30.56C888.78 1.39 822.57 1.1 756.44 0c-46.63-.11-93.27 1.56-139.89 2.5C365.5 13.55 452.86 7.68 277.94 23.15 202.57 33.32 127.38 45.01 52.07 55.69c-11.23 2.41-22.63 4.17-33.71 7.22C6.1 66.33 5.64 66.19 3.89 67.79c-7.99 5.78-2.98 20.14 8.72 17.5 33.99-9.47 32.28-8.57 178.06-29.66 4.26 4.48 7.29 3.38 18.42 3.11 13.19-.32 26.38-.53 39.56-1.12 53.51-3.81 106.88-9.62 160.36-13.95 18.41-1.3 36.8-3.12 55.21-4.7 23.21-1.16 46.43-2.29 69.65-3.4 120.28-2.16 85.46-3.13 234.65-1.52 23.42.99 1.57-.18 125.72 6.9 96.61 8.88 200.92 27.94 295.42 46.12 40.87 7.91 116.67 23.2 156.31 36.78 3.81 1.05 8.28-.27 10.51-3.58 3.17-3.72 2.66-9.7-.78-13.13-3.25-3.12-8.14-3.44-12.18-5.08-17.89-5.85-44.19-12.09-63.67-16.56l26.16 3.28c23.02 3.13 46.28 3.92 69.34 6.75 10.8.96 25.43 1.81 34.34-4.39 2.26-1.54 4.86-2.75 6.21-5.27 2.76-4.59 1.13-11.06-3.59-13.68ZM925.4 23.77c37.64 1.4 153.99 10.85 196.64 14.94 45.95 5.51 91.89 11.03 137.76 17.19 24.25 4.77 74.13 11.21 101.72 18.14-11.87-1.15-23.77-1.97-35.65-3.06-133.46-15.9-266.8-33.02-400.47-47.21Z"></path></svg>
    <svg id="quote-mark" viewBox="0 0 86 56" fill="none"><path d="M38.5625 16.1875C34.0208 16.1875 30.7292 18.3333 28.6875 22.625C27.8542 24.5417 27.375 26.6875 27.25 29.0625H38.5625V55.4375H0.5V30.25C0.5 15.5 7.47917 6.125 21.4375 2.125C26.2292 0.75 31.9375 0.0625 38.5625 0.0625V16.1875ZM85.5 16.1875C80.7083 16.1875 77.4167 18.3333 75.625 22.625C74.7917 24.5417 74.3333 26.6875 74.25 29.0625H85.5V55.4375H47.5V30.25C47.5 15.5 54.4583 6.125 68.375 2.125C73.1667 0.75 78.875 0.0625 85.5 0.0625V16.1875Z" fill="#302915"/></svg>
    <svg id="image-frame" viewBox="0 0 512 512"><path d="M0 96C0 60.7 28.7 32 64 32H448c35.3 0 64 28.7 64 64V416c0 35.3-28.7 64-64 64H64c-35.3 0-64-28.7-64-64V96zM323.8 202.5c-4.5-6.6-11.9-10.5-19.8-10.5s-15.4 3.9-19.8 10.5l-87 127.6L170.7 297c-4.6-5.7-11.5-9-18.7-9s-14.2 3.3-18.7 9l-64 80c-5.8 7.2-6.9 17.1-2.9 25.4s12.4 13.6 21.6 13.6h96 32H424c8.9 0 17.1-4.9 21.2-12.8s3.6-17.4-1.4-24.7l-120-176zM112 192a48 48 0 1 0 0-96 48 48 0 1 0 0 96z"/></svg>
    <svg id="motion-play" viewBox="0 -960 960 960"><path d="m400-320 240-160-240-160v320Zm80 240q-83 0-156-31.5T197-197q-54-54-85.5-127T80-480q0-43 9-84.5t26-80.5l62 62q-8 26-12.5 51.5T160-480q0 134 93 227t227 93q134 0 227-93t93-227q0-134-93-227t-227-93q-27 0-52.5 4.5T377-783l-61-61q40-18 80-27t84-9q83 0 156 31.5T763-763q54 54 85.5 127T880-480q0 83-31.5 156T763-197q-54 54-127 85.5T480-80ZM220-680q-25 0-42.5-17.5T160-740q0-25 17.5-42.5T220-800q25 0 42.5 17.5T280-740q0 25-17.5 42.5T220-680Zm260 200Z"/></svg>
    <svg id="motion-pause" viewBox="0 -960 960 960"><path d="M360-360h80v-240h-80v240Zm160 0h80v-240h-80v240ZM480-80q-83 0-156-31.5T197-197q-54-54-85.5-127T80-480q0-43 9-84.5t26-80.5l62 62q-8 26-12.5 51.5T160-480q0 134 93 227t227 93q134 0 227-93t93-227q0-134-93-227t-227-93q-27 0-52.5 4.5T377-783l-61-61q40-18 80-27t84-9q83 0 156 31.5T763-763q54 54 85.5 127T880-480q0 83-31.5 156T763-197q-54 54-127 85.5T480-80ZM220-680q-25 0-42.5-17.5T160-740q0-25 17.5-42.5T220-800q25 0 42.5 17.5T280-740q0 25-17.5 42.5T220-680Zm260 200Z"/></svg>
  </defs>
</svg>